<?xml version="1.0" standalone="no"?>
<svg xmlns:xlink="http://www.w3.org/1999/xlink" id="wave" style="transform:rotate(180deg); transition: 0.3s" viewBox="0 0 1440 120" version="1.1" xmlns="http://www.w3.org/2000/svg"><defs><linearGradient id="sw-gradient-0" x1="0" x2="0" y1="1" y2="0"><stop stop-color="rgba(255, 255, 255, 1)" offset="0%"/><stop stop-color="rgba(255, 255, 255, 1)" offset="100%"/></linearGradient></defs><path style="transform:translate(0, 0px); opacity:1" fill="url(#sw-gradient-0)" d="M0,108L48,108C96,108,192,108,288,100C384,92,480,76,576,74C672,72,768,84,864,90C960,96,1056,96,1152,88C1248,80,1344,64,1440,64C1536,64,1632,80,1728,76C1824,72,1920,48,2016,34C2112,20,2208,16,2304,22C2400,28,2496,44,2592,54C2688,64,2784,68,2880,76C2976,84,3072,96,3168,84C3264,72,3360,36,3456,22C3552,8,3648,16,3744,24C3840,32,3936,40,4032,42C4128,44,4224,40,4320,36C4416,32,4512,28,4608,22C4704,16,4800,8,4896,22C4992,36,5088,72,5184,86C5280,100,5376,92,5472,80C5568,68,5664,52,5760,44C5856,36,5952,36,6048,44C6144,52,6240,68,6336,62C6432,56,6528,28,6624,28C6720,28,6816,56,6864,70L6912,84L6912,120L6864,120C6816,120,6720,120,6624,120C6528,120,6432,120,6336,120C6240,120,6144,120,6048,120C5952,120,5856,120,5760,120C5664,120,5568,120,5472,120C5376,120,5280,120,5184,120C5088,120,4992,120,4896,120C4800,120,4704,120,4608,120C4512,120,4416,120,4320,120C4224,120,4128,120,4032,120C3936,120,3840,120,3744,120C3648,120,3552,120,3456,120C3360,120,3264,120,3168,120C3072,120,2976,120,2880,120C2784,120,2688,120,2592,120C2496,120,2400,120,2304,120C2208,120,2112,120,2016,120C1920,120,1824,120,1728,120C1632,120,1536,120,1440,120C1344,120,1248,120,1152,120C1056,120,960,120,864,120C768,120,672,120,576,120C480,120,384,120,288,120C192,120,96,120,48,120L0,120Z"/></svg>